# xmcd CD database file
#
# Track frame offsets:
#       150
#       4201
#       22964
#       40078
#       59409
#       80084
#       96123
#       115051
#       122831
#       141706
#       159372
#       179147
#       199540
#       222825
#       243747
#
# Disc length: 3408 seconds
#
# Revision: 1
# Processed by: cddbd v1.5.2PL0 Copyright (c) Steve Scherf et al.
# Submitted via: jack 3.1.1
#
DISCID=d70d4e0f
DTITLE=Marker Beacon - Dead Frequencies
DYEAR=2013
DGENRE=Metal
TTITLE0=Near Death Experience
TTITLE1=Time To Time
TTITLE2=Need You
TTITLE3=Despair
TTITLE4=New Shell
TTITLE5=Blaster
TTITLE6=Persian Tales
TTITLE7=Free
TTITLE8=Rain In Brain
TTITLE9=Drug Day
TTITLE10=Final Nightmare
TTITLE11=Slaughter
TTITLE12=Where Is My Savior
TTITLE13=I Still Call Your Name
TTITLE14=Megahertz
EXTD=
EXTT0=
EXTT1=
EXTT2=
EXTT3=
EXTT4=
EXTT5=
EXTT6=
EXTT7=
EXTT8=
EXTT9=
EXTT10=
EXTT11=
EXTT12=
EXTT13=
EXTT14=
PLAYORDER=
